<?xml version="1.0" encoding="utf-8"?>
<!-- Generator: Adobe Illustrator 28.2.0, SVG Export Plug-In . SVG Version: 6.00 Build 0)  -->
<svg version="1.1" id="Capa_1" xmlns="http://www.w3.org/2000/svg" xmlns:xlink="http://www.w3.org/1999/xlink" x="0px" y="0px"
	 viewBox="0 0 327.7 103.1" style="enable-background:new 0 0 327.7 103.1;" xml:space="preserve">
<style type="text/css">
	.st0{fill:#FDFBF5;}
	.st1{fill:none;stroke:#9BAA6E;stroke-miterlimit:10;}
	.st2{fill:#C8D299;}
	.st3{fill:#FFFFFF;}
	.st4{fill:#E1261D;}
	.st5{fill:#D90613;}
	.st6{fill:#14477F;}
	.st7{fill:none;}
	.st8{clip-path:url(#SVGID_00000091708298613260844900000013527618382416141236_);fill:#788746;}
	.st9{clip-path:url(#SVGID_00000054962183944813961750000011772217216012426942_);fill:#EC1C24;}
	.st10{clip-path:url(#SVGID_00000054962183944813961750000011772217216012426942_);fill:#FFFFFF;}
	.st11{clip-path:url(#SVGID_00000044152399139781358350000016883016924572771715_);fill:#FDFBF5;}
	.st12{clip-path:url(#SVGID_00000044152399139781358350000016883016924572771715_);fill:#C8D299;}
	.st13{clip-path:url(#SVGID_00000044152399139781358350000016883016924572771715_);}
	.st14{clip-path:url(#SVGID_00000181771317017777524850000002968691212280891067_);fill:#FFFFFF;}
	.st15{clip-path:url(#SVGID_00000181771317017777524850000002968691212280891067_);fill:#E1261D;}
	.st16{clip-path:url(#SVGID_00000181771317017777524850000002968691212280891067_);fill:#D90613;}
	.st17{clip-path:url(#SVGID_00000181771317017777524850000002968691212280891067_);fill:#14477F;}
	.st18{clip-path:url(#SVGID_00000094612530225238217850000007809372163523476905_);fill:none;stroke:#C8D299;stroke-miterlimit:10;}
	.st19{clip-path:url(#SVGID_00000047777577813661962050000014879663253633977249_);fill:none;stroke:#C8D299;stroke-miterlimit:10;}
	.st20{clip-path:url(#SVGID_00000047777577813661962050000014879663253633977249_);fill:#C8D299;}
	.st21{clip-path:url(#SVGID_00000047777577813661962050000014879663253633977249_);fill:none;stroke:#FFFFFF;stroke-miterlimit:10;}
	.st22{clip-path:url(#SVGID_00000054246440100740146280000013385673238096321433_);fill:none;stroke:#FFFFFF;stroke-miterlimit:10;}
	.st23{clip-path:url(#SVGID_00000030463414201588679000000013028403957364647097_);fill:none;stroke:#C8D299;stroke-miterlimit:10;}
	.st24{clip-path:url(#SVGID_00000179645265049302004380000012182439040714991771_);fill:none;stroke:#C8D299;stroke-miterlimit:10;}
	.st25{clip-path:url(#SVGID_00000008835247778070960370000018235694301034251157_);fill:none;stroke:#C8D299;stroke-miterlimit:10;}
	.st26{clip-path:url(#SVGID_00000164494921971233449980000011892661847499759246_);fill:none;stroke:#C8D299;stroke-miterlimit:10;}
	.st27{clip-path:url(#SVGID_00000178207090858371043870000003233751886980765854_);fill:none;stroke:#C8D299;stroke-miterlimit:10;}
	.st28{clip-path:url(#SVGID_00000096752287985880250490000014780380816269863333_);fill:none;stroke:#C8D299;stroke-miterlimit:10;}
	.st29{clip-path:url(#SVGID_00000155143275164992926210000008201173595538987937_);fill:none;stroke:#C8D299;stroke-miterlimit:10;}
	.st30{clip-path:url(#SVGID_00000173119874931386497950000012393425799677381032_);fill:none;stroke:#C8D299;stroke-miterlimit:10;}
	.st31{clip-path:url(#SVGID_00000088110070148001556050000016095344552719758464_);fill:none;stroke:#C8D299;stroke-miterlimit:10;}
	.st32{clip-path:url(#SVGID_00000008114578325673561220000011074804599305749654_);fill:none;stroke:#C8D299;stroke-miterlimit:10;}
	.st33{clip-path:url(#SVGID_00000009577559474842253190000003311753547319474563_);fill:none;stroke:#C8D299;stroke-miterlimit:10;}
	.st34{clip-path:url(#SVGID_00000005260398693403941260000011696972410140108455_);fill:none;stroke:#C8D299;stroke-miterlimit:10;}
	.st35{clip-path:url(#SVGID_00000146488369673030968790000001740815111686454403_);fill:none;stroke:#C8D299;stroke-miterlimit:10;}
	.st36{clip-path:url(#SVGID_00000019656006511826246130000005633535211482905270_);fill:none;stroke:#C8D299;stroke-miterlimit:10;}
	.st37{clip-path:url(#SVGID_00000045611036534419871260000012289820018085821864_);fill:none;stroke:#C8D299;stroke-miterlimit:10;}
	.st38{clip-path:url(#SVGID_00000137813264373907769830000013731127398510362780_);fill:none;stroke:#C8D299;stroke-miterlimit:10;}
	.st39{clip-path:url(#SVGID_00000000918646532082143920000008790430143576674689_);fill:none;stroke:#C8D299;stroke-miterlimit:10;}
	.st40{clip-path:url(#SVGID_00000073717946866780723580000014274773056025278102_);fill:none;stroke:#C8D299;stroke-miterlimit:10;}
</style>
<g>
	<path class="st3" d="M159.1,45.9l0.1-1.2l2.2-0.4c0.5-0.1,0.6-0.2,0.7-0.6l1.1-8.4h-10.7l-1.1,8.4c0,0.4,0.1,0.5,0.6,0.6l2.1,0.4
		l0.1,1.2h-8.6l0.1-1.2l2.2-0.4c0.5-0.1,0.7-0.3,0.7-0.6l2.4-17.7c0.1-0.3,0-0.5-0.5-0.6l-2-0.4l-0.1-1.2h8.6l-0.1,1.2l-2.2,0.4
		c-0.4,0.1-0.6,0.3-0.7,0.6l-1,7.8h10.7l1.1-7.8c0.1-0.4,0-0.5-0.5-0.6l-2.1-0.4l-0.1-1.2h8.7l-0.1,1.2l-2.2,0.4
		c-0.4,0.1-0.6,0.3-0.7,0.6L165,43.7c-0.1,0.4,0.1,0.5,0.5,0.6l2.1,0.4l0.1,1.2H159.1z"/>
	<path class="st3" d="M180.8,32.2l0.7-2.7h2.2l-1.7,6.3l-1.9,8.4l1.1,0.3l2.8-2.4l0.6,0.6c-0.8,1.5-3,3.6-4.3,3.6
		c-0.7,0-2.5-0.6-2.5-1.1c0-0.4,1-3.7,2-6.9h-0.3c-2.2,4.1-4.6,8.1-6.8,8.1c-1.9,0-3.2-1.8-3.2-4.6c0-3.6,1.7-7.9,3.9-10.1
		c1.3-1.3,2.9-2.3,4.4-2.3c1.7,0,2.5,1.6,2.9,2.7H180.8z M176.2,31.2c-0.5,0-1,0.2-1.4,0.7c-1.3,1.3-3,6.3-3,9.4
		c0,2,0.6,3.1,1.7,3.1c1.3,0,3-2.6,6.3-8.2l0.5-2C179.5,32.9,177.8,31.2,176.2,31.2"/>
	<path class="st3" d="M192.2,30.9c-0.2,0-0.7,0.4-1.1,0.7c-1.3,1.3-3,5.5-3,8.9c0,2.7,1.5,4,3.2,4c1,0,2.5-0.9,4.2-2.3l0.5,0.6
		c-1.7,2-3.6,3.5-5.7,3.5c-2.7,0-4.7-2.4-4.7-5.5c0-5.6,3.9-11.4,8.4-11.4c2,0,3.8,1.1,3.8,2.7c0,1-0.7,1.9-1.6,1.9
		c-0.9,0-1.4-0.5-1.4-1.3c0-0.4,0.1-0.7,0.2-1C194.9,31.6,193.4,30.9,192.2,30.9"/>
	<path class="st3" d="M200.1,40.5c0,2.7,1.5,4,3.2,4c1,0,2.5-0.9,4.2-2.3l0.5,0.6c-1.7,2-3.6,3.5-5.7,3.5c-2.7,0-4.7-2.4-4.7-5.5
		c0-5.7,4-11.4,8.2-11.4c2.3,0,3.7,1.5,3.7,3.1c0,2.3-2.1,3.2-9.4,7C200.1,40,200.1,40.3,200.1,40.5 M200.2,38.7c5.7-3,7-4.2,7-6
		c0-1-1.8-1.7-2.6-1.7c-0.7,0-1.3,0.3-1.6,0.7C202.1,32.7,200.8,35.3,200.2,38.7L200.2,38.7z"/>
	<path class="st3" d="M220.6,31.5c-1.1,0.9-4.7,7.7-5.8,10.2l-0.8,4.3l-2.6-0.2l1.2-5.2l1.9-9l-1.1-0.2l-2.7,2.8l-0.6-0.6
		c0.8-1.7,2.9-4.1,4.2-4.1c0.7,0,2.5,0.6,2.5,1.1c0,0.7-1.4,6.1-2.3,9h0.5c0.9-2.4,3-6.8,4.1-8.2c1.2-1.5,1.7-2,3-2s2.1,1,2.1,2.1
		c0,1.2-0.7,2-1.7,2c-1,0-1.7-0.7-1.3-2C221.2,31.7,220.7,31.4,220.6,31.5"/>
	<path class="st3" d="M241.2,44.1c-1.4,1.4-3.3,2.4-5,2.4c-1.9,0-4.8-1.8-4.7-2.4l3.9-19.1c0.1-0.4,0-0.6-0.2-0.7l-2.4-0.8l0.1-0.9
		l5.8-1.4l-1.9,8.2l-2.1,8.4h0.3c2.2-4.2,4.7-8.3,6.8-8.3c1.9,0,3.1,2.3,3.1,5C244.7,38.1,243.3,42,241.2,44.1 M240.5,31.7
		c-1.2,0-2.9,2.6-6.3,8.5l-0.7,2.9c1.1,1.1,2.9,2.2,4.1,2.2c0.5,0,1.1-0.3,1.6-0.8c1.5-1.5,3-6.1,3-9.2
		C242.2,33.3,241.7,31.7,240.5,31.7"/>
	<path class="st3" d="M249.1,46.4c-0.7,0-2.5-0.7-2.4-1.1l3.6-13.6l-1.1-0.2l-2.7,2.8l-0.6-0.6c0.8-1.7,2.9-4.1,4.2-4.1
		c0.7,0,2.7,0.6,2.6,1.1L249,44.3l1.1,0.3l2.8-2.4l0.6,0.6C252.6,44.4,250.4,46.4,249.1,46.4 M252.9,26.4c-1.1,0-1.8-0.8-1.8-1.8
		c0-1.3,0.9-2.3,1.8-2.3c1.1,0,1.7,0.8,1.7,1.8C254.7,25.4,253.8,26.4,252.9,26.4"/>
	<path class="st3" d="M256.9,40.5c0,2.7,1.5,4,3.2,4c1,0,2.5-0.9,4.2-2.3l0.5,0.6c-1.7,2-3.6,3.5-5.7,3.5c-2.7,0-4.7-2.4-4.7-5.5
		c0-5.7,4-11.4,8.2-11.4c2.3,0,3.7,1.5,3.7,3.1c0,2.3-2.1,3.2-9.4,7C256.9,40,256.9,40.3,256.9,40.5 M257.1,38.7c5.7-3,7-4.2,7-6
		c0-1-1.8-1.7-2.6-1.7c-0.7,0-1.3,0.3-1.6,0.7C258.9,32.7,257.6,35.3,257.1,38.7L257.1,38.7z"/>
	<path class="st3" d="M279,46.4c-0.7,0-2.4-0.6-2.4-1.1c0-1,1.1-4.3,1.8-6.8c0.6-2.2,1.4-4.4,1.4-5.2c0-0.8-0.8-1.6-1.7-1.6
		c-1.1,0-3.6,4.1-6.5,10l-0.8,4.3l-2.6-0.2l1.2-5.2l1.9-8.9l-1-0.2l-2.8,2.7l-0.6-0.6c0.8-1.7,2.9-4.1,4.2-4.1
		c0.7,0,2.5,0.6,2.5,1.1c0,0.7-1.5,6.1-2.2,9h0.4c2.2-4.5,4-7.7,5.2-8.9c0.8-0.8,1.6-1.2,2.4-1.2c1.3,0,2.7,1.1,2.7,2.5
		c0,1.2-0.7,3.9-1.5,6.4c-0.7,2.3-1.3,4.6-1.8,5.8l1.1,0.3l2.8-2.4l0.6,0.6C282.5,44.4,280.3,46.4,279,46.4"/>
	<path class="st3" d="M145.5,65h1.9v2.5h0.1c1.1-1.6,2.9-2.8,5.4-2.8c3,0,5.2,1.8,5.2,5.1v11.5h-1.9V69.9c0-2.5-1.4-3.6-3.7-3.6
		c-2.8,0-5,1.9-5,4.6v10.3h-1.9V65z"/>
	<path class="st3" d="M160.4,73.1c0-4.8,2.9-8.5,7.5-8.5s7.5,3.7,7.5,8.5c0,4.8-2.8,8.5-7.5,8.5S160.4,78,160.4,73.1 M173.5,73.1
		c0-3.8-1.9-6.9-5.5-6.9c-3.6,0-5.5,3.1-5.5,6.9c0,3.8,1.9,6.9,5.5,6.9C171.6,80,173.5,76.9,173.5,73.1"/>
	<path class="st3" d="M176.9,76.2h2c0.3,2.7,2.2,3.8,4.8,3.8c2.7,0,4.1-1.3,4.1-3.1c0-1.8-1-2.4-4.3-3.1c-3.3-0.8-5.9-1.5-5.9-4.7
		c0-2.7,2.3-4.4,5.7-4.4c3.9,0,5.7,1.9,6,4.8h-1.9c-0.2-2.1-1.7-3.2-4.1-3.2c-2.5,0-3.7,1.2-3.7,2.7c0,1.9,1.5,2.3,4.6,3
		c3.3,0.7,5.6,1.5,5.6,4.9c0,2.9-2.3,4.8-6.1,4.8C179.3,81.7,177.1,79.3,176.9,76.2"/>
	<path class="st3" d="M197.5,58.8h1.9v8.7h0.1c1.1-1.6,2.9-2.8,5.4-2.8c3,0,5.2,1.8,5.2,5.1v11.5h-1.9V69.9c0-2.5-1.4-3.6-3.7-3.6
		c-2.8,0-5,1.9-5,4.6v10.3h-1.9V58.8z"/>
	<path class="st3" d="M212.4,77.1c0-3.9,3-4.7,6.7-5.1c3.2-0.4,4.4-0.6,4.4-2.2v-0.3c0-2.2-1.4-3.3-3.9-3.3c-2.9,0-4.4,1.2-4.6,3.6
		h-1.9c0.2-3.1,2.3-5.2,6.5-5.2c3.6,0,5.8,1.5,5.8,5v8.8c0,1,0.4,1.4,1.1,1.4c0.2,0,0.4-0.1,0.7-0.1h0.1v1.4
		c-0.3,0.1-0.7,0.3-1.3,0.3c-1.4,0-2.3-0.7-2.4-2.3v-0.3h-0.1c-0.9,1.3-2.6,2.8-5.7,2.8C214.7,81.6,212.4,80.1,212.4,77.1
		 M223.5,75.4v-2.9c-1,0.6-2.6,0.8-4.2,1.1c-2.7,0.4-4.8,0.8-4.8,3.6c0,2.3,1.7,3,3.6,3C221.7,80,223.5,77.6,223.5,75.4"/>
	<path class="st3" d="M227.9,73.1c0-4.8,2.7-8.5,7.4-8.5c3.6,0,6,1.9,6.5,5.3h-1.9c-0.5-2.4-2.1-3.6-4.6-3.6c-3.7,0-5.4,3.1-5.4,6.9
		c0,3.8,1.7,6.8,5.4,6.8c2.8,0,4.5-1.7,4.8-4.3h1.9c-0.4,3.7-2.8,6-6.7,6C230.6,81.7,227.9,78,227.9,73.1"/>
	<path class="st3" d="M243.5,73.1c0-4.9,2.9-8.5,7.4-8.5c5.2,0,7,4.3,7,8.9h-12.4c0.1,3.6,1.9,6.5,5.6,6.5c2.7,0,4.1-1.4,4.7-3.6
		h1.9c-0.7,3.2-3,5.3-6.6,5.3C246.2,81.7,243.5,78,243.5,73.1 M255.8,71.9c-0.1-3.2-1.6-5.7-4.9-5.7c-3.3,0-5,2.5-5.4,5.7H255.8z"/>
	<path class="st3" d="M267.6,78.8L267.6,78.8l-0.1,2.5h-1.9V58.8h1.9v9h0.1c1.1-1.9,2.9-3.1,5.5-3.1c3.9,0,6.7,3.1,6.7,8.5
		c0,5-2.5,8.5-6.8,8.5C270.5,81.7,268.9,80.7,267.6,78.8 M277.8,73.2c0-4.1-1.7-6.9-5-6.9c-3.6,0-5.5,3-5.5,6.9
		c0,4.1,1.9,6.8,5.5,6.8C276.2,80,277.8,77,277.8,73.2"/>
	<path class="st3" d="M282.4,58.8h1.9v2.8h-1.9V58.8z M282.4,65h1.9v16.2h-1.9V65z"/>
	<path class="st3" d="M286.8,73.1c0-4.9,2.9-8.5,7.4-8.5c5.2,0,7,4.3,7,8.9h-12.4c0.1,3.6,1.9,6.5,5.6,6.5c2.7,0,4.1-1.4,4.7-3.6
		h1.9c-0.7,3.2-3,5.3-6.6,5.3C289.5,81.7,286.8,78,286.8,73.1 M299.1,71.9c-0.1-3.2-1.6-5.7-4.9-5.7c-3.3,0-5,2.5-5.4,5.7H299.1z"/>
	<path class="st3" d="M303.6,65h1.9v2.5h0.1c1.1-1.6,2.9-2.8,5.4-2.8c3,0,5.2,1.8,5.2,5.1v11.5h-1.9V69.9c0-2.5-1.4-3.6-3.7-3.6
		c-2.8,0-5,1.9-5,4.6v10.3h-1.9V65z"/>
	<polygon class="st4" points="94.3,36.1 84.4,36.1 86.3,26.2 96.2,26.2 	"/>
	<polygon class="st3" points="94,30.1 91.8,30.1 92.3,27.6 90,27.6 89.5,30.1 87.2,30.1 86.8,32.3 89.1,32.3 88.6,34.9 90.9,34.9 
		91.4,32.3 93.5,32.3 	"/>
	<path class="st3" d="M12.6,45.6c-0.1-11.4,19.1-20.9,43-21.2C66.3,24.2,76.1,26,83.7,29C76.2,24,65,20.9,52.5,20.9
		c-22.7,0-41.1,10.3-41.1,23.1c0,5.5,3.5,10.6,9.3,14.6l0.2-1C15.7,54.3,12.6,50.1,12.6,45.6 M27.8,61.1c-0.1,0.4-0.2,0.8-0.4,1.2
		c6.9,3,15.6,4.8,25.1,4.8c7.9,0,15.3-1.3,21.6-3.5c-5.5,1.3-11.6,2-18.1,2.1C45.3,65.9,35.4,64.1,27.8,61.1"/>
	<path class="st3" d="M33.3,31.8h-5.7h-0.2l-5.9,29.1c-0.6,3-2.8,7.1-6.2,7.3l0.6,1.7c4,0,6.6-1.4,8.4-3.8c1.3-1.7,2.1-3.9,2.7-6.6
		L33.3,31.8z"/>
	<path class="st3" d="M48.6,57.2h-5.1l0.5-2c-2,1.3-4.3,2.4-6.7,2.4c-4.2,0-4.2-4.3-3.5-7.3L36,39.2l5.3-0.9l-2.4,11.3
		c-0.4,1.6-0.7,4.8,1.8,4.8c1.3,0,2.7-0.7,3.7-1.5l2.9-13.8l5.3-0.9L48.6,57.2z"/>
	<path class="st3" d="M63.8,40.5c-1.6,0-3.6,1-3.6,2.8c0,2.3,7.2,2.8,7.2,7.4c0,4.8-5,7-9.2,7c-1.8,0-3.4-0.4-5.1-1L53,54.5
		c1.5,0.8,3.3,1.2,4.9,1.2c1.9,0,4.4-1.1,4.4-3.2c0-3.2-7.2-3.3-7.2-7.5c0-4.3,4.8-6.4,8.5-6.4c1.2,0,3,0.4,4.1,1l0.1,2.1
		C66.7,41,65.3,40.5,63.8,40.5"/>
	<path class="st3" d="M83.3,40.6h-4.5l-2.3,10.7c-0.5,2.1-0.7,3.6,2.2,3.6c0.7,0,1.5-0.1,2.2-0.2l-1,2.1c-1.9,0.4-3.7,0.8-5.7,0.8
		c-3.4,0-3.8-2-3.2-4.8l2.6-12.3h-2.3l0.4-1.7H74l0.9-4.3l5.3-0.9l-1.1,5.2h4.4L83.3,40.6z"/>
	<path class="st3" d="M17.7,77.8c1.7,0,2.3,1.1,2.3,2.2c0,1.1-0.6,2.2-2.3,2.2c-1.7,0-2.3-1.1-2.3-2.2C15.4,78.9,16,77.8,17.7,77.8
		 M17.7,78.3c-0.9,0-1.7,0.5-1.7,1.6c0,1.1,0.7,1.6,1.7,1.6c0.9,0,1.7-0.5,1.7-1.6C19.4,78.9,18.7,78.3,17.7,78.3"/>
	<path class="st3" d="M21,77.9h2.6c0.8,0,1.1,0.6,1.1,1.1c0,0.5-0.2,0.9-0.7,1v0c0.4,0.1,0.6,0.4,0.6,0.9c0,0.8,0.1,1,0.2,1.1h-0.7
		c-0.1-0.1-0.1-0.3-0.1-0.8c0-0.7-0.3-1-0.8-1h-1.6v1.8H21V77.9z M23.3,79.8c0.6,0,0.8-0.4,0.8-0.7c0-0.4-0.2-0.7-0.7-0.7h-1.7v1.3
		H23.3z"/>
	<rect x="25.7" y="77.9" class="st3" width="0.6" height="4.2"/>
	<path class="st3" d="M29.9,79.8h1.9v2.2h-0.4l-0.1-0.6c-0.3,0.3-0.7,0.7-1.6,0.7c-1.7,0-2.2-1.2-2.2-2.1c0-1.6,1.1-2.3,2.2-2.3
		c0.9,0,1.8,0.3,2.1,1.4h-0.7c-0.2-0.6-0.6-0.9-1.4-0.9c-1.1,0-1.6,0.8-1.6,1.7c0,1.2,0.8,1.6,1.6,1.6c0.9,0,1.5-0.5,1.6-1.3h-1.4
		V79.8z"/>
	<rect x="33" y="77.9" class="st3" width="0.6" height="4.2"/>
	<polygon class="st3" points="35.5,78.7 35.5,78.7 35.5,82.1 34.9,82.1 34.9,77.9 35.6,77.9 38.3,81.2 38.3,81.2 38.3,77.9 
		38.9,77.9 38.9,82.1 38.2,82.1 	"/>
	<path class="st3" d="M42.9,80.8h-2l-0.5,1.2h-0.7l1.9-4.2h0.7l1.9,4.2h-0.7L42.9,80.8z M41.9,78.5l-0.8,1.8h1.6L41.9,78.5z"/>
	<polygon class="st3" points="44.9,77.9 45.5,77.9 45.5,81.5 48,81.5 48,82.1 44.9,82.1 	"/>
	<rect x="51" y="80.1" class="st3" width="2" height="0.6"/>
	<path class="st3" d="M56.6,80.7c0,0.7,0.7,0.9,1.3,0.9c0.7,0,1.1-0.3,1.1-0.7c0-0.4-0.3-0.5-0.8-0.6l-0.9-0.2
		c-0.5-0.1-1.2-0.3-1.2-1.1c0-0.8,0.6-1.3,1.7-1.3c0.8,0,1.7,0.3,1.8,1.3H59c-0.1-0.3-0.2-0.8-1.2-0.8c-0.5,0-1,0.2-1,0.7
		c0,0.3,0.2,0.5,0.7,0.5l1,0.2c0.3,0.1,1.3,0.2,1.3,1.1c0,1.1-1,1.4-1.8,1.4c-0.9,0-1.9-0.3-1.9-1.5H56.6z"/>
	<rect x="60.6" y="77.9" class="st3" width="0.6" height="4.2"/>
	<polygon class="st3" points="63.1,78.7 63.1,78.7 63.1,82.1 62.5,82.1 62.5,77.9 63.2,77.9 65.9,81.2 65.9,81.2 65.9,77.9 
		66.5,77.9 66.5,82.1 65.8,82.1 	"/>
	<path class="st3" d="M71.1,79.4c-0.1-0.6-0.5-1.1-1.4-1.1c-1,0-1.6,0.6-1.6,1.7c0,0.8,0.4,1.6,1.6,1.6c0.7,0,1.3-0.3,1.5-1.2h0.6
		c-0.1,0.9-0.9,1.7-2.1,1.7c-1,0-2.2-0.6-2.2-2.2c0-1.2,0.8-2.2,2.2-2.2c0.8,0,2,0.4,2.1,1.6H71.1z"/>
	<polygon class="st3" points="72.8,77.9 76.1,77.9 76.1,78.4 73.4,78.4 73.4,79.6 76,79.6 76,80.2 73.4,80.2 73.4,81.5 76.2,81.5 
		76.2,82.1 72.8,82.1 	"/>
	<path class="st3" d="M80.1,79.1h-1.2v-0.5H79c1,0,1.2-0.5,1.2-0.8h0.5v4.2h-0.6V79.1z"/>
	<path class="st3" d="M82.8,81.1c0.1,0.4,0.4,0.6,0.8,0.6c0.7,0,1.2-0.3,1.2-1.5h0c-0.2,0.3-0.6,0.5-1.2,0.5c-0.7,0-1.6-0.3-1.6-1.4
		c0-0.6,0.4-1.4,1.6-1.4c1.2,0,1.7,0.8,1.7,2c0,2.1-1.3,2.2-1.8,2.2c-0.5,0-1.3-0.2-1.4-1H82.8z M83.7,78.4c-0.7,0-1,0.4-1,0.9
		s0.3,0.9,1,0.9c0.7,0,1-0.4,1-0.9S84.4,78.4,83.7,78.4"/>
	<path class="st3" d="M87.5,79.7c0.1,0,0.2,0,0.4,0c0.5,0,0.8-0.2,0.8-0.6c0-0.5-0.4-0.7-0.9-0.7c-0.6,0-0.9,0.3-0.9,0.8h-0.6
		c0-0.9,0.7-1.3,1.5-1.3c1,0,1.5,0.5,1.5,1.1c0,0.4-0.2,0.7-0.6,0.8v0c0.5,0.1,0.8,0.5,0.8,1c0,0.7-0.5,1.3-1.6,1.3
		c-0.4,0-1.7,0-1.7-1.4h0.6c0,0.7,0.5,0.9,1.1,0.9c0.7,0,1-0.3,1-0.8c0-0.5-0.4-0.7-1-0.7c-0.2,0-0.3,0-0.3,0V79.7z"/>
	<path class="st3" d="M92.1,77.9c1.3,0,1.7,1,1.7,2.1c0,1.2-0.4,2.1-1.7,2.1c-1.3,0-1.7-1-1.7-2.1C90.4,78.9,90.8,77.9,92.1,77.9
		 M92.1,78.4c-1,0-1.1,1.1-1.1,1.6c0,0.5,0.1,1.6,1.1,1.6c1,0,1.1-1.1,1.1-1.6C93.2,79.6,93.1,78.4,92.1,78.4"/>
</g>
</svg>
