<?xml version="1.0" encoding="utf-8"?>
<!-- Generator: Adobe Illustrator 28.2.0, SVG Export Plug-In . SVG Version: 6.00 Build 0)  -->
<svg version="1.1" id="Capa_1" xmlns="http://www.w3.org/2000/svg" xmlns:xlink="http://www.w3.org/1999/xlink" x="0px" y="0px"
	 viewBox="0 0 199.3 147" style="enable-background:new 0 0 199.3 147;" xml:space="preserve">
<style type="text/css">
	.st0{fill:#FDFBF5;}
	.st1{fill:none;stroke:#9BAA6E;stroke-miterlimit:10;}
	.st2{fill:#C8D299;}
	.st3{fill:#FFFFFF;}
	.st4{fill:#E1261D;}
	.st5{fill:#D90613;}
	.st6{fill:#14477F;}
	.st7{fill:none;}
	.st8{clip-path:url(#SVGID_00000045600367253598281570000008290236349525768634_);fill:#788746;}
	.st9{clip-path:url(#SVGID_00000083079787282693518870000004986190876181276820_);fill:#EC1C24;}
	.st10{clip-path:url(#SVGID_00000083079787282693518870000004986190876181276820_);fill:#FFFFFF;}
	.st11{clip-path:url(#SVGID_00000094593732635420657140000000592279690411266485_);fill:#FDFBF5;}
	.st12{clip-path:url(#SVGID_00000094593732635420657140000000592279690411266485_);fill:#C8D299;}
	.st13{clip-path:url(#SVGID_00000094593732635420657140000000592279690411266485_);}
	.st14{clip-path:url(#SVGID_00000060725108905927652430000004347899808554276248_);fill:#FFFFFF;}
	.st15{clip-path:url(#SVGID_00000060725108905927652430000004347899808554276248_);fill:#E1261D;}
	.st16{clip-path:url(#SVGID_00000060725108905927652430000004347899808554276248_);fill:#D90613;}
	.st17{clip-path:url(#SVGID_00000060725108905927652430000004347899808554276248_);fill:#14477F;}
	.st18{clip-path:url(#SVGID_00000055675078388805198950000004797589084591951746_);fill:none;stroke:#C8D299;stroke-miterlimit:10;}
	.st19{clip-path:url(#SVGID_00000060712821345590346120000004447713269558663845_);fill:none;stroke:#C8D299;stroke-miterlimit:10;}
	.st20{clip-path:url(#SVGID_00000060712821345590346120000004447713269558663845_);fill:#C8D299;}
	.st21{clip-path:url(#SVGID_00000060712821345590346120000004447713269558663845_);fill:none;stroke:#FFFFFF;stroke-miterlimit:10;}
	.st22{clip-path:url(#SVGID_00000034798593319783534760000004475175592669224376_);fill:none;stroke:#FFFFFF;stroke-miterlimit:10;}
	.st23{clip-path:url(#SVGID_00000163071577798208627080000014580155915083264674_);fill:none;stroke:#C8D299;stroke-miterlimit:10;}
	.st24{clip-path:url(#SVGID_00000030489292223659857530000017534005240746216584_);fill:none;stroke:#C8D299;stroke-miterlimit:10;}
	.st25{clip-path:url(#SVGID_00000140720521087270046960000011828681211779548288_);fill:none;stroke:#C8D299;stroke-miterlimit:10;}
	.st26{clip-path:url(#SVGID_00000099638310446865375220000013150865526030089636_);fill:none;stroke:#C8D299;stroke-miterlimit:10;}
	.st27{clip-path:url(#SVGID_00000085222841804403203130000010380572387690920834_);fill:none;stroke:#C8D299;stroke-miterlimit:10;}
	.st28{clip-path:url(#SVGID_00000036227031576183531590000000107561386800878736_);fill:none;stroke:#C8D299;stroke-miterlimit:10;}
	.st29{clip-path:url(#SVGID_00000156552577838093529650000017320819000440897210_);fill:none;stroke:#C8D299;stroke-miterlimit:10;}
	.st30{clip-path:url(#SVGID_00000015355431779374245080000004701348493636998815_);fill:none;stroke:#C8D299;stroke-miterlimit:10;}
	.st31{clip-path:url(#SVGID_00000049920598356145137910000012680451342330359183_);fill:none;stroke:#C8D299;stroke-miterlimit:10;}
	.st32{clip-path:url(#SVGID_00000081647593262984730160000018377604099283224963_);fill:none;stroke:#C8D299;stroke-miterlimit:10;}
	.st33{clip-path:url(#SVGID_00000134966239173038558900000001127374412828359310_);fill:none;stroke:#C8D299;stroke-miterlimit:10;}
	.st34{clip-path:url(#SVGID_00000095311845340171792150000010390238120304015023_);fill:none;stroke:#C8D299;stroke-miterlimit:10;}
	.st35{clip-path:url(#SVGID_00000118381097316795962750000018158370206612598166_);fill:none;stroke:#C8D299;stroke-miterlimit:10;}
	.st36{clip-path:url(#SVGID_00000084505582887864087950000016769231618059872910_);fill:none;stroke:#C8D299;stroke-miterlimit:10;}
	.st37{clip-path:url(#SVGID_00000039852841117234431560000013899697048650404483_);fill:none;stroke:#C8D299;stroke-miterlimit:10;}
	.st38{clip-path:url(#SVGID_00000035516440031760268190000017648178871612237223_);fill:none;stroke:#C8D299;stroke-miterlimit:10;}
	.st39{clip-path:url(#SVGID_00000180346752980767715810000015232531785202686142_);fill:none;stroke:#C8D299;stroke-miterlimit:10;}
	.st40{clip-path:url(#SVGID_00000088831560816478158550000002146590000805738888_);fill:none;stroke:#C8D299;stroke-miterlimit:10;}
</style>
<g>
	<polygon class="st5" points="181.9,43.7 161.8,43.7 165.7,24.7 185.8,24.7 	"/>
	<polygon class="st3" points="181.2,32.1 176.9,32.1 177.8,27.4 173.2,27.4 172.2,32.1 167.6,32.1 166.7,36.5 171.3,36.5 
		170.3,41.4 174.9,41.4 176,36.5 180.3,36.5 	"/>
	<path class="st6" d="M15.8,62C15.5,40,54.6,21.6,103.2,21c21.8-0.3,41.8,3.1,57.2,8.9c-15.3-9.5-38-15.6-63.4-15.6
		c-46.1,0-83.5,20-83.5,44.6c0,10.7,7.1,20.5,18.8,28.2l0.4-1.9C22.2,78.8,15.9,70.8,15.8,62 M46.8,91.9c-0.2,0.8-0.5,1.5-0.7,2.3
		c14.1,5.8,31.8,9.3,51,9.3c16.1,0,31.1-2.4,43.9-6.7c-11.1,2.5-23.6,3.9-36.7,4.1C82.3,101.2,62.3,97.8,46.8,91.9"/>
	<path class="st6" d="M57.9,35.5H46.3h-0.5L33.9,91.7c-1.3,5.8-5.6,13.7-12.7,14.1l1.3,3.3c8.1,0,13.5-2.7,17-7.4
		c2.6-3.3,4.3-7.6,5.6-12.8L57.9,35.5z"/>
	<path class="st6" d="M89.1,84.5H78.7l0.9-3.9c-4,2.6-8.8,4.7-13.7,4.7c-8.6,0-8.5-8.3-7.2-14.1l4.7-21.4l10.8-1.7L69.3,70
		c-0.7,3.2-1.5,9.2,3.6,9.2c2.7,0,5.5-1.3,7.5-2.9l5.9-26.6l10.8-1.7L89.1,84.5z"/>
	<path class="st6" d="M120,52.2c-3.2-0.1-7.4,1.9-7.4,5.4c0,4.5,14.7,5.5,14.7,14.2c-0.1,9.2-10.2,13.5-18.6,13.5
		c-3.6,0-6.9-0.8-10.3-2L98,79.2c3.1,1.5,6.7,2.3,10.1,2.3c3.8,0,9-2,9-6.2c0.1-6.1-14.7-6.3-14.7-14.4c0-8.3,9.7-12.4,17.3-12.4
		c2.5,0,6.1,0.8,8.3,2l0.2,4.1C125.7,53.2,122.9,52.2,120,52.2"/>
	<path class="st6" d="M159.6,52.3h-9.1L145.9,73c-1,4.1-1.4,7,4.5,7c1.5,0,3-0.1,4.5-0.4l-2,4.1c-3.8,0.8-7.6,1.5-11.6,1.5
		c-6.9,0-7.7-3.9-6.5-9.2l5.2-23.8h-4.8l0.7-3.2h4.7l1.9-8.3l10.7-1.7l-2.1,10h9L159.6,52.3z"/>
	<path class="st6" d="M26.2,124.2c3.4,0,4.7,2.2,4.7,4.2c0,2.1-1.3,4.2-4.7,4.2c-3.4,0-4.7-2.2-4.7-4.2
		C21.5,126.3,22.8,124.2,26.2,124.2 M26.2,125.2c-1.9,0-3.4,1.1-3.4,3.2c0,2.1,1.5,3.2,3.4,3.2c1.9,0,3.4-1.1,3.4-3.2
		C29.7,126.3,28.2,125.2,26.2,125.2"/>
	<path class="st6" d="M32.9,124.4h5.2c1.7,0,2.3,1.1,2.3,2.1c0,1-0.5,1.7-1.4,2v0c0.7,0.1,1.2,0.8,1.2,1.7c0.1,1.5,0.1,1.9,0.4,2.2
		h-1.3c-0.2-0.2-0.2-0.6-0.3-1.5c-0.1-1.4-0.6-1.9-1.6-1.9h-3.3v3.4h-1.3V124.4z M37.7,128c1.2,0,1.5-0.7,1.5-1.3
		c0-0.8-0.5-1.3-1.5-1.3h-3.5v2.5H37.7z"/>
	<rect x="42.6" y="124.4" class="st6" width="1.3" height="8"/>
	<path class="st6" d="M51,128.1h3.9v4.3H54l-0.2-1.1c-0.6,0.6-1.5,1.3-3.2,1.3c-3.4,0-4.5-2.3-4.5-4.1c0-3.1,2.2-4.4,4.4-4.4
		c1.7,0,3.7,0.5,4.2,2.7h-1.3c-0.4-1.1-1.3-1.7-2.9-1.7c-2.2,0-3.2,1.5-3.2,3.2c0,2.3,1.5,3.1,3.3,3.1c1.8,0,3-1,3.2-2.5H51V128.1z"
		/>
	<rect x="57.4" y="124.4" class="st6" width="1.2" height="8"/>
	<polygon class="st6" points="62.5,126 62.4,126 62.4,132.4 61.2,132.4 61.2,124.4 62.6,124.4 68.1,130.8 68.1,130.8 68.1,124.4 
		69.3,124.4 69.3,132.4 67.9,132.4 	"/>
	<path class="st6" d="M77.4,130.1h-4.1l-1.1,2.3h-1.4l3.8-8h1.4l3.8,8h-1.4L77.4,130.1z M75.3,125.5l-1.6,3.6H77L75.3,125.5z"/>
	<polygon class="st6" points="81.4,124.4 82.7,124.4 82.7,131.4 87.8,131.4 87.8,132.4 81.4,132.4 	"/>
	<rect x="93.8" y="128.7" class="st6" width="4.2" height="1.2"/>
	<path class="st6" d="M105.4,129.8c0,1.4,1.4,1.8,2.7,1.8c1.3,0,2.3-0.5,2.3-1.4c0-0.7-0.6-1-1.6-1.2l-1.9-0.3
		c-1-0.2-2.5-0.5-2.5-2.1c0-1.5,1.2-2.4,3.4-2.4c1.7,0,3.5,0.6,3.6,2.5h-1.3c-0.1-0.6-0.5-1.5-2.5-1.5c-0.9,0-2,0.4-2,1.3
		c0,0.5,0.3,0.9,1.4,1.1l2.1,0.3c0.7,0.1,2.5,0.4,2.5,2.1c0,2-1.9,2.6-3.6,2.6c-1.9,0-3.9-0.6-3.9-2.8H105.4z"/>
	<rect x="113.4" y="124.4" class="st6" width="1.3" height="8"/>
	<polygon class="st6" points="118.5,126 118.5,126 118.5,132.4 117.2,132.4 117.2,124.4 118.7,124.4 124.1,130.8 124.2,130.8 
		124.2,124.4 125.4,124.4 125.4,132.4 124,132.4 	"/>
	<path class="st6" d="M134.8,127.3c-0.2-1.1-1.1-2.1-2.9-2.1c-2,0-3.3,1.1-3.3,3.3c0,1.5,0.9,3.1,3.2,3.1c1.5,0,2.6-0.7,3-2.2h1.3
		c-0.2,1.8-1.8,3.3-4.2,3.3c-2.1,0-4.4-1.1-4.4-4.2c0-2.3,1.5-4.2,4.4-4.2c1.7,0,4,0.7,4.2,3.1H134.8z"/>
	<polygon class="st6" points="138.1,124.4 144.9,124.4 144.9,125.4 139.4,125.4 139.4,127.8 144.7,127.8 144.7,128.8 139.4,128.8 
		139.4,131.4 145,131.4 145,132.4 138.1,132.4 	"/>
	<path class="st6" d="M153,126.7h-2.5v-0.9h0.3c2.1,0,2.4-0.9,2.5-1.5h1v8H153V126.7z"/>
	<path class="st6" d="M158.5,130.6c0.1,0.7,0.8,1.1,1.6,1.1c1.4,0,2.4-0.5,2.5-2.8h0c-0.3,0.5-1.2,1-2.4,1c-1.4,0-3.2-0.6-3.2-2.7
		c0-1.2,0.9-2.7,3.3-2.7c2.5,0,3.5,1.5,3.5,3.9c0,4.1-2.6,4.2-3.7,4.2c-1,0-2.5-0.4-2.8-2H158.5z M160.3,125.4
		c-1.4,0-2.1,0.8-2.1,1.8c0,1,0.6,1.8,2.1,1.8c1.4,0,2.1-0.8,2.1-1.8C162.4,126.2,161.8,125.4,160.3,125.4"/>
	<path class="st6" d="M168.1,127.8c0.2,0,0.3,0,0.8,0c1.1,0,1.6-0.4,1.6-1.1c0-1-0.9-1.3-1.8-1.3c-1.3,0-1.8,0.6-1.9,1.6h-1.2
		c0.1-1.8,1.3-2.6,3.1-2.6c2.1,0,3,1,3,2.1c0,0.7-0.4,1.4-1.2,1.6v0c0.9,0.2,1.6,0.9,1.6,1.9c0,1.3-1,2.5-3.2,2.5
		c-0.8,0-3.5,0-3.5-2.7h1.2c0.1,1.3,0.9,1.7,2.2,1.7c1.3,0,2.1-0.6,2.1-1.5c0-0.9-0.9-1.4-2.1-1.4c-0.4,0-0.6,0-0.7,0V127.8z"/>
	<path class="st6" d="M177.5,124.4c2.6,0,3.4,1.8,3.4,4.1c0,2.2-0.8,4.1-3.4,4.1c-2.6,0-3.4-1.8-3.4-4.1
		C174.1,126.3,174.9,124.4,177.5,124.4 M177.5,125.4c-2,0-2.2,2.2-2.2,3.1c0,0.9,0.1,3.1,2.2,3.1c2,0,2.2-2.2,2.2-3.1
		C179.6,127.6,179.5,125.4,177.5,125.4"/>
</g>
</svg>
